<svg viewBox="0 0 666 70" fill="none" xmlns="http://www.w3.org/2000/svg">
<path d="M651.474 20.24V21.9219L652.393 20.5131C652.698 20.0462 653.02 19.605 653.361 19.1893C654.408 17.9117 655.629 16.8713 657.025 16.0649L657.025 16.065L657.032 16.0607C658.607 15.1158 660.331 14.5749 662.211 14.4385C662.364 14.4273 662.519 14.4189 662.674 14.4132V24.988H660.167C657.376 24.988 655.189 25.5965 653.697 26.9008C652.165 28.1952 651.474 30.4281 651.474 33.424V49.5H641.531V14.788H651.474V20.24ZM653.474 13.288V12.788H652.974H640.031H639.531V13.288V51V51.5H640.031H652.974H653.474V51V33.424C653.474 30.643 654.129 29.1526 654.99 28.4264L654.996 28.4213L654.996 28.4214L655.003 28.415L655.01 28.4091L655.01 28.4089C655.993 27.5489 657.622 26.988 660.167 26.988H664.174H664.674V26.488V12.904V12.404H664.174H663.174C660.574 12.404 658.175 13.0449 656.013 14.3394C655.1 14.8678 654.254 15.4827 653.474 16.1823V13.288Z" stroke="white"/>
<path d="M632.516 22.4028L632.516 22.4028C631.069 19.7977 629.047 17.797 626.444 16.392C623.838 14.9856 620.849 14.276 617.465 14.276C613.996 14.276 610.944 15.0068 608.297 16.4547C605.652 17.9012 603.587 19.9648 602.096 22.6557C600.649 25.3436 599.917 28.5012 599.917 32.144C599.917 35.7858 600.67 38.9423 602.158 41.6298C603.649 44.3219 605.715 46.3863 608.361 47.8333C611.009 49.2816 614.04 50.012 617.465 50.012C620.304 50.012 622.856 49.4904 625.13 48.4568L625.337 48.912L625.13 48.4568C627.411 47.4199 629.29 45.9936 630.774 44.1794L630.778 44.1742L630.778 44.1742C632.089 42.6156 633.049 40.8936 633.661 39.0059C633.661 39.0058 633.661 39.0058 633.661 39.0058L634.136 39.16C634.19 38.9946 634.241 38.8279 634.289 38.66L632.516 22.4028ZM632.516 22.4028L632.519 22.4081C634.005 25.0093 634.757 28.0571 634.757 31.568C634.757 32.4349 634.71 33.3348 634.616 34.268H610.297H609.757L609.798 34.8064C609.826 35.1654 609.867 35.5129 609.922 35.8487L609.922 35.8487C610.22 37.67 610.924 39.1496 612.062 40.2477L612.068 40.2538L612.075 40.2597C613.453 41.5 615.132 42.116 617.081 42.116C618.517 42.116 619.769 41.8127 620.812 41.1795C621.775 40.5957 622.531 39.7485 623.089 38.66H633.768L632.516 22.4028ZM610.08 27.5632C609.993 27.8999 609.922 28.2498 609.867 28.6128L609.779 29.188H610.361H624.057H624.557V28.688C624.557 28.3206 624.534 27.9647 624.487 27.6206L623.992 27.688L624.487 27.6206C624.279 26.0893 623.603 24.8173 622.464 23.8302L622.464 23.8302C621.081 22.6315 619.36 22.044 617.337 22.044C615.398 22.044 613.724 22.6106 612.345 23.7599L612.345 23.7598L612.339 23.7653C611.232 24.7188 610.484 25.994 610.08 27.5632ZM610.08 27.5632L610.564 27.688M610.08 27.5632L610.564 27.688M610.564 27.688C610.522 27.851 610.484 28.0177 610.449 28.188L610.564 27.688ZM607.641 49.1494L607.401 49.5881C610.379 51.2164 613.747 52.012 617.465 52.012C620.553 52.012 623.393 51.4433 625.958 50.2775C628.496 49.1237 630.624 47.5181 632.313 45.4565C634.033 43.4097 635.225 41.0965 635.879 38.53L635.394 38.4067L635.879 38.53L636.196 37.2833L636.355 36.66H635.711H622.138H621.819L621.684 36.9499L621.416 37.5298L621.416 37.5298C620.989 38.4511 620.434 39.0695 619.775 39.4696C619.109 39.8739 618.235 40.116 617.081 40.116C615.6 40.116 614.414 39.6661 613.432 38.7909C612.811 38.184 612.335 37.3642 612.051 36.268H635.956H636.402L636.453 35.8253L636.555 34.9399C636.689 33.7786 636.757 32.6543 636.757 31.568C636.757 27.768 635.942 24.3705 634.26 21.4241C632.629 18.4912 630.333 16.2183 627.393 14.632C624.459 13.0484 621.137 12.276 617.465 12.276C613.707 12.276 610.318 13.0701 607.337 14.6999C604.352 16.3323 602.016 18.6722 600.345 21.6892L600.345 21.6892L600.342 21.6945L600.336 21.7048C598.706 24.7327 597.917 28.2281 597.917 32.144C597.917 36.0666 598.73 39.5677 600.409 42.5987C602.08 45.6158 604.416 47.9557 607.401 49.5881L607.641 49.1494ZM621.155 25.3415L621.482 24.9637L621.155 25.3415C621.732 25.8421 622.135 26.4451 622.356 27.188H612.303C612.627 26.3932 613.078 25.7714 613.635 25.2882C614.616 24.4746 615.82 24.044 617.337 24.044C618.947 24.044 620.184 24.5001 621.155 25.3415Z" stroke="white"/>
<path d="M570.599 12.788V13.288V15.4583C571.271 14.9152 572.004 14.4277 572.797 13.9952L573.036 14.4322L572.797 13.9952C574.931 12.8313 577.384 12.276 580.107 12.276C583.319 12.276 586.264 13.0948 588.903 14.744L588.638 15.168L588.903 14.744C591.549 16.3979 593.605 18.7503 595.081 21.7447C596.611 24.7614 597.352 28.2201 597.352 32.08C597.352 35.9419 596.61 39.4193 595.083 42.4745C593.609 45.4683 591.557 47.8378 588.919 49.5335L570.599 12.788ZM570.599 12.788H570.099H557.156H556.656V13.288V68.024V68.524H557.156H570.099H570.599V68.024V48.8391C571.271 49.3763 572.005 49.8606 572.797 50.2929L572.802 50.2953L572.81 50.2995L570.599 12.788ZM581.336 26.7258L581.331 26.7205L581.322 26.7108L581.336 26.7258ZM581.336 26.7258L581.341 26.731M581.336 26.7258L581.341 26.731M581.341 26.731L581.351 26.7407C581.351 26.7407 581.351 26.7408 581.351 26.7408C582.538 27.9276 583.216 29.6397 583.216 32.08C583.216 34.5121 582.541 36.286 581.33 37.569M581.341 26.731L581.33 37.569M581.33 37.569C580.074 38.8566 578.606 39.476 576.844 39.476C575.081 39.476 573.613 38.8563 572.357 37.5684C571.195 36.3354 570.536 34.5882 570.536 32.144C570.536 29.6999 571.195 27.9525 572.357 26.7194C573.613 25.4315 575.081 24.812 576.844 24.812C578.659 24.812 580.118 25.4385 581.321 26.7104L581.33 37.569ZM568.599 19.344V21.0506L569.52 19.6138C569.808 19.1649 570.127 18.7405 570.476 18.3405C571.364 17.3239 572.455 16.4601 573.755 15.7509C575.547 14.7736 577.659 14.276 580.107 14.276C582.962 14.276 585.536 14.9986 587.842 16.44C590.145 17.8793 591.963 19.9386 593.291 22.6368L593.291 22.6369L593.294 22.6423C594.66 25.334 595.352 28.4752 595.352 32.08C595.352 35.6845 594.66 38.8484 593.292 41.5844L593.291 41.5872C591.963 44.2853 590.145 46.3672 587.84 47.8497C585.534 49.2899 582.961 50.012 580.107 50.012C577.704 50.012 575.591 49.5156 573.753 48.5359C572.452 47.8259 571.36 46.972 570.473 45.9766C570.123 45.5848 569.805 45.1703 569.517 44.7332L568.599 43.3382V45.008V66.524H558.656V14.788H568.599V19.344ZM588.908 49.5404L588.919 49.5338L572.81 50.2997C574.975 51.4545 577.421 52.012 580.107 52.012C583.319 52.012 586.264 51.1932 588.903 49.5441L588.903 49.5441L588.908 49.5404ZM582.77 38.9567L582.77 38.9567L582.774 38.9519C584.417 37.2179 585.216 34.9085 585.216 32.08C585.216 29.2555 584.419 26.9834 582.77 25.3314C581.181 23.6539 579.194 22.812 576.844 22.812C574.531 22.812 572.546 23.6572 570.917 25.3313L570.917 25.3313L570.912 25.3364C569.31 27.0301 568.536 29.3198 568.536 32.144C568.536 34.9682 569.31 37.2579 570.912 38.9516L570.912 38.9516L570.917 38.9567C572.546 40.6308 574.531 41.476 576.844 41.476C579.156 41.476 581.141 40.6308 582.77 38.9567Z" stroke="white"/>
<path d="M523.849 15.1325L523.615 14.6908C526.668 13.0718 530.07 12.276 533.789 12.276C537.509 12.276 540.911 13.0718 543.964 14.6908M523.849 15.1325L543.964 14.6908M523.849 15.1325L523.615 14.6908C520.545 16.3188 518.122 18.6753 516.362 21.7302C514.591 24.7626 513.729 28.2502 513.729 32.144C513.729 36.0733 514.567 39.58 516.294 42.6141L516.294 42.6141L516.296 42.6181L516.302 42.6281L516.303 42.629C518.06 45.6353 520.457 47.966 523.478 49.5927L523.481 49.5943M523.849 15.1325L523.481 49.5943M543.964 14.6908C547.032 16.3178 549.454 18.6723 551.213 21.7244M543.964 14.6908L551.213 21.7244M523.481 49.5943L523.487 49.5972C523.487 49.5972 523.487 49.5972 523.487 49.5973C526.54 51.2163 529.942 52.012 533.661 52.012C537.38 52.012 540.781 51.217 543.833 49.599C546.938 47.9759 549.385 45.6458 551.148 42.63C552.963 39.5568 553.849 36.0462 553.849 32.144C553.849 28.2477 552.987 24.7582 551.213 21.7244M523.481 49.5943L551.213 21.7244M537.894 37.6949L537.894 37.6949L537.898 37.6904C539.038 36.5177 539.714 34.7462 539.714 32.144C539.714 29.5313 539.054 27.7541 537.948 26.5826L537.894 37.6949ZM537.894 37.6949L537.889 37.6996L537.884 37.7049L537.883 37.7061C536.712 38.9456 535.335 39.54 533.661 39.54C531.994 39.54 530.648 38.9499 529.527 37.7309C528.491 36.5604 527.865 34.7724 527.865 32.144C527.865 29.4669 528.515 27.699 529.569 26.5811L529.569 26.5811L529.573 26.5765L529.583 26.5661L529.583 26.5656C530.7 25.3478 532.065 24.748 533.789 24.748C535.461 24.748 536.809 25.3407 537.932 26.5656L537.936 26.5701L537.936 26.5701L537.942 26.5772L537.947 26.5819L537.894 37.6949ZM542.902 47.8288L542.899 47.8303C540.162 49.2817 537.087 50.012 533.661 50.012C530.237 50.012 527.162 49.2819 524.425 47.8309C521.736 46.3825 519.606 44.3161 518.031 41.6221C516.502 38.9362 515.729 35.7824 515.729 32.144C515.729 28.5505 516.523 25.4188 518.093 22.7323L518.093 22.7324L518.095 22.7295C519.67 19.9933 521.821 17.9061 524.552 16.4577C527.289 15.0063 530.364 14.276 533.789 14.276C537.215 14.276 540.29 15.0063 543.027 16.4577L543.261 16.016L543.027 16.4577C545.758 17.9061 547.909 19.9933 549.484 22.7295L549.486 22.7323C551.056 25.4188 551.849 28.5505 551.849 32.144C551.849 35.735 551.036 38.8877 549.423 41.6176L549.422 41.6197C547.848 44.3115 545.678 46.3788 542.902 47.8288ZM528.04 39.0682L528.04 39.0682L528.045 39.0739C529.548 40.7136 531.431 41.54 533.661 41.54C535.89 41.54 537.791 40.715 539.334 39.082C540.944 37.425 541.714 35.0865 541.714 32.144C541.714 29.2052 540.967 26.8688 539.404 25.2114C537.901 23.5735 536.019 22.748 533.789 22.748C531.521 22.748 529.616 23.5712 528.111 25.2115C526.587 26.83 525.865 29.1696 525.865 32.144C525.865 35.0772 526.566 37.4103 528.04 39.0682Z" stroke="white"/>
<path d="M510.975 1.64V1.14H510.475H497.531H497.031V1.64V51V51.5H497.531H510.475H510.975V51V1.64ZM508.975 3.14V49.5H499.031V3.14H508.975Z" stroke="white"/>
<path d="M490.016 22.4028L490.016 22.4028L490.019 22.4081C491.505 25.0093 492.257 28.0571 492.257 31.568C492.257 32.4349 492.21 33.3348 492.116 34.268H467.797H467.257L467.298 34.8064C467.326 35.1654 467.367 35.5129 467.422 35.8488C467.72 37.67 468.424 39.1496 469.562 40.2477L469.568 40.2538L469.575 40.2596C470.953 41.5 472.632 42.116 474.581 42.116C476.017 42.116 477.269 41.8127 478.312 41.1795C479.275 40.5957 480.032 39.7485 480.589 38.66H491.268C491.234 38.7759 491.198 38.8912 491.161 39.0058L491.636 39.16L491.161 39.0058C490.549 40.8936 489.589 42.6156 488.278 44.1742L488.278 44.1742L488.274 44.1794C486.79 45.9936 484.911 47.4199 482.63 48.4568C480.356 49.4904 477.804 50.012 474.965 50.012C471.54 50.012 468.509 49.2816 465.861 47.8333C463.215 46.3863 461.149 44.3219 459.658 41.6298C458.17 38.9423 457.417 35.7858 457.417 32.144C457.417 28.5011 458.149 25.3436 459.596 22.6557C461.087 19.9648 463.152 17.9012 465.797 16.4547L465.557 16.016L465.797 16.4547C468.444 15.0068 471.496 14.276 474.965 14.276C478.349 14.276 481.338 14.9856 483.944 16.392C486.547 17.797 488.569 19.7977 490.016 22.4028ZM479.638 36.66H479.318L479.184 36.9499L478.916 37.5298C478.489 38.4511 477.934 39.0695 477.275 39.4696C476.609 39.8739 475.735 40.116 474.581 40.116C473.1 40.116 471.914 39.6661 470.932 38.7909C470.311 38.184 469.835 37.3642 469.551 36.268H493.456H493.902L493.953 35.8253L494.055 34.9399C494.189 33.7786 494.257 32.6543 494.257 31.568C494.257 27.7673 493.441 24.3689 491.759 21.4221C490.128 18.4902 487.832 16.2179 484.893 14.632C481.959 13.0484 478.637 12.276 474.965 12.276C471.207 12.276 467.818 13.0701 464.837 14.6999L465.077 15.1386L464.837 14.6999C461.852 16.3323 459.516 18.6722 457.845 21.6892L457.845 21.6892L457.842 21.6945L457.836 21.7049C456.206 24.7327 455.417 28.2281 455.417 32.144C455.417 36.0666 456.23 39.5677 457.909 42.5987C459.58 45.6158 461.916 47.9557 464.901 49.5881C467.879 51.2164 471.247 52.012 474.965 52.012C478.054 52.012 480.893 51.4433 483.458 50.2775C485.997 49.1231 488.126 47.5164 489.816 45.4534C491.534 43.4074 492.726 41.0952 493.379 38.53L493.696 37.2833L493.855 36.66H493.211H479.638ZM481.557 29.188H482.057L468.064 27.688L467.58 27.5632C467.58 27.5632 467.58 27.5632 467.58 27.5633C467.493 27.8999 467.422 28.2498 467.367 28.6128L467.279 29.188H467.861H481.557ZM478.655 25.3415L478.982 24.9637L478.655 25.3415C479.232 25.8421 479.635 26.4451 479.856 27.188H469.803C470.127 26.3933 470.578 25.7714 471.135 25.2882C472.116 24.4746 473.32 24.044 474.837 24.044C476.447 24.044 477.684 24.5001 478.655 25.3415Z" stroke="white"/>
<path d="M434.616 39.9054L435.095 41.479L435.573 39.9054L443.209 14.788H453.779L441.461 49.5H428.664L416.346 14.788H426.98L434.616 39.9054ZM442.097 12.788H441.727L441.619 13.1426L435.095 34.6031L428.57 13.1426L428.462 12.788H428.092H414.223H413.515L413.751 13.4552L427.133 51.1672L427.251 51.5H427.604H442.521H442.874L442.992 51.1672L456.374 13.4552L456.61 12.788H455.902H442.097Z" stroke="white"/>
<path d="M410.516 22.4028L410.516 22.4028L410.519 22.4081C412.005 25.0093 412.757 28.0571 412.757 31.568C412.757 32.4349 412.71 33.3348 412.616 34.268H388.297H387.757L387.798 34.8064C387.826 35.1654 387.867 35.5129 387.922 35.8488C388.22 37.67 388.924 39.1496 390.062 40.2477L390.068 40.2538L390.074 40.2596C391.453 41.5 393.132 42.116 395.081 42.116C396.517 42.116 397.769 41.8127 398.812 41.1795C399.775 40.5957 400.531 39.7485 401.089 38.66H411.768C411.734 38.7759 411.698 38.8912 411.66 39.0058L412.136 39.16L411.66 39.0058C411.049 40.8936 410.089 42.6156 408.778 44.1742L408.778 44.1742L408.774 44.1794C407.29 45.9936 405.411 47.4199 403.13 48.4568C400.856 49.4904 398.304 50.012 395.465 50.012C392.04 50.012 389.009 49.2816 386.361 47.8333C383.715 46.3863 381.649 44.3219 380.158 41.6298C378.67 38.9423 377.917 35.7858 377.917 32.144C377.917 28.5011 378.649 25.3436 380.096 22.6557C381.587 19.9648 383.652 17.9012 386.297 16.4547L386.057 16.016L386.297 16.4547C388.944 15.0068 391.996 14.276 395.465 14.276C398.849 14.276 401.838 14.9856 404.444 16.392C407.047 17.797 409.069 19.7977 410.516 22.4028ZM400.138 36.66H399.818L399.684 36.9499L399.416 37.5298C398.989 38.4511 398.434 39.0695 397.775 39.4696C397.109 39.8739 396.235 40.116 395.081 40.116C393.6 40.116 392.414 39.6661 391.432 38.7909C390.811 38.184 390.335 37.3642 390.051 36.268H413.956H414.402L414.453 35.8253L414.555 34.9399C414.689 33.7786 414.757 32.6543 414.757 31.568C414.757 27.7673 413.941 24.3689 412.259 21.4221C410.628 18.4902 408.332 16.2179 405.393 14.632C402.459 13.0484 399.137 12.276 395.465 12.276C391.707 12.276 388.318 13.0701 385.337 14.6999L385.577 15.1386L385.337 14.6999C382.352 16.3323 380.016 18.6722 378.345 21.6892L378.345 21.6892L378.342 21.6945L378.336 21.7049C376.706 24.7327 375.917 28.2281 375.917 32.144C375.917 36.0666 376.73 39.5677 378.409 42.5987C380.08 45.6158 382.416 47.9557 385.401 49.5881C388.379 51.2164 391.747 52.012 395.465 52.012C398.553 52.012 401.393 51.4433 403.958 50.2775C406.497 49.1231 408.626 47.5164 410.316 45.4534C412.034 43.4074 413.226 41.0952 413.879 38.53L414.196 37.2833L414.355 36.66H413.711H400.138ZM402.057 29.188H402.557L388.564 27.688L388.079 27.5632C388.079 27.5632 388.079 27.5632 388.079 27.5633C387.993 27.8999 387.922 28.2498 387.867 28.6128L387.779 29.188H388.361H402.057ZM399.155 25.3415L399.482 24.9637L399.155 25.3415C399.732 25.8421 400.135 26.4451 400.356 27.188H390.303C390.627 26.3933 391.078 25.7714 391.635 25.2882C392.616 24.4746 393.82 24.044 395.337 24.044C396.947 24.044 398.184 24.5001 399.155 25.3415Z" stroke="white"/>
<path d="M362.045 46.7411L362.043 46.7422C358.585 48.5753 354.551 49.5 349.925 49.5H333.593V5.572H349.925C354.594 5.572 358.65 6.49705 362.107 8.32976C365.566 10.1633 368.225 12.7414 370.097 16.0691L370.097 16.0692L370.101 16.0756C372.013 19.3598 372.977 23.1747 372.977 27.536C372.977 31.8536 372.014 35.6698 370.1 38.9988L370.097 39.0029C368.226 42.3291 365.546 44.907 362.045 46.7411ZM363.044 6.5627L362.809 7.00447L363.044 6.5627C359.25 4.5515 354.862 3.572 349.925 3.572H332.093H331.593V4.072V51V51.5H332.093H349.925C354.821 51.5 359.187 50.5197 362.979 48.5099C366.806 46.504 369.771 43.6597 371.837 39.9898C373.943 36.3248 374.977 32.1594 374.977 27.536C374.977 22.8744 373.945 18.7059 371.834 15.0779C369.77 11.4131 366.829 8.56937 363.044 6.5627ZM343.537 40.528V41.028H344.037H349.221C353.452 41.028 356.813 39.8698 359.235 37.4928C361.66 35.1129 362.841 31.7691 362.841 27.536C362.841 23.3024 361.66 19.9398 359.239 17.5184C356.817 15.097 353.455 13.916 349.221 13.916H344.037H343.537V14.416V40.528ZM345.537 15.916H349.221C353.075 15.916 355.872 16.9807 357.824 18.9327C359.776 20.8846 360.841 23.6824 360.841 27.536C360.841 31.3911 359.776 34.1599 357.834 36.0655C355.884 37.98 353.082 39.028 349.221 39.028H345.537V15.916Z" stroke="white"/>
<path d="M300.878 51.2939L301.028 51.5H301.282H317.509H318.583L317.891 50.678L302.338 32.2004L317.744 13.607L318.423 12.788H317.359H301.226H300.975L300.825 12.9894L292.412 24.2894V1.64V1.14H291.912H278.968H278.468V1.64V51V51.5H278.968H291.912H292.412V51V39.6407L300.878 51.2939ZM299.999 31.889L299.733 32.2105L300.001 32.53L314.286 49.5H302.047L291.317 34.7301L290.412 33.4851V35.024V49.5H280.468V3.14H290.412V28.816V30.3249L291.313 29.1146L301.979 14.788H314.168L299.999 31.889Z" stroke="white"/>
<path d="M251.571 39.1657L251.571 39.1657L251.575 39.171C252.868 40.833 254.616 41.668 256.77 41.668C258.261 41.668 259.547 41.3054 260.598 40.5499C261.565 39.8543 262.298 38.8508 262.811 37.572H273.48C273.449 37.6954 273.416 37.8179 273.383 37.9396C272.39 41.5544 270.545 44.4117 267.852 46.5354C264.924 48.845 261.305 50.012 256.962 50.012C253.537 50.012 250.507 49.2818 247.859 47.8339C245.257 46.388 243.212 44.3246 241.721 41.6323C240.274 38.9444 239.542 35.7868 239.542 32.144C239.542 28.5011 240.274 25.3436 241.721 22.6557C243.213 19.9633 245.257 17.8998 247.859 16.4539C250.507 15.0061 253.537 14.276 256.962 14.276C261.351 14.276 264.97 15.4236 267.853 17.6892L267.856 17.6913C270.548 19.7769 272.395 22.6521 273.387 26.3457C273.42 26.4682 273.452 26.5917 273.483 26.716H262.811C262.298 25.4372 261.565 24.4337 260.598 23.7381C259.547 22.9826 258.261 22.62 256.77 22.62C254.612 22.62 252.864 23.48 251.573 25.1837C250.285 26.8411 249.678 29.1853 249.678 32.144C249.678 35.1056 250.287 37.4681 251.571 39.1657ZM246.898 14.6999L246.898 14.6999L246.896 14.7014L246.89 14.7047L246.89 14.7048C243.948 16.3388 241.637 18.6783 239.97 21.6892L239.97 21.6892L239.967 21.6945L239.961 21.7048C238.331 24.7327 237.542 28.2281 237.542 32.144C237.542 36.0599 238.331 39.5553 239.961 42.5832L239.961 42.5832L239.964 42.5883L239.97 42.5986L239.97 42.5987C241.637 45.6097 243.948 47.9492 246.89 49.5833L246.893 49.5851L246.898 49.5881C249.876 51.2164 253.244 52.012 256.962 52.012C261.683 52.012 265.758 50.7345 269.091 48.1057C272.421 45.4793 274.572 41.8783 275.578 37.4006L275.851 36.1815L275.988 35.572H275.363H261.763H261.411L261.292 35.9029L261.054 36.5647C260.642 37.7136 260.08 38.4592 259.43 38.9262C258.784 39.3905 257.929 39.668 256.77 39.668C255.215 39.668 254.06 39.1035 253.16 37.9511C252.239 36.7291 251.678 34.8587 251.678 32.144C251.678 29.4196 252.243 27.5802 253.154 26.409L253.154 26.409L253.158 26.404L253.166 26.3934L253.166 26.3932C254.073 25.1948 255.227 24.62 256.77 24.62C257.929 24.62 258.784 24.8975 259.43 25.3618C260.08 25.8288 260.642 26.5744 261.054 27.7233L261.292 28.3851L261.411 28.716H261.763H275.358H275.98L275.846 28.1086L275.579 26.8937C274.577 22.3372 272.428 18.7053 269.085 16.1139C265.79 13.5256 261.714 12.276 256.962 12.276C253.244 12.276 249.876 13.0716 246.898 14.6999Z" stroke="white"/>
<path d="M218.588 50.2964C219.409 49.8583 220.166 49.3632 220.857 48.8102V51V51.5H221.357H234.301H234.801V51V13.288V12.788H234.301H221.357H220.857V13.288V15.4341C220.186 14.8984 219.451 14.4181 218.653 13.992C216.521 12.8303 214.07 12.276 211.348 12.276C208.137 12.276 205.192 13.0948 202.553 14.744C199.909 16.3967 197.833 18.7464 196.315 21.7369L196.315 21.7369L196.312 21.7421L196.307 21.7531L196.307 21.7535C194.823 24.768 194.105 28.2236 194.105 32.08C194.105 35.9371 194.823 39.4101 196.303 42.4624C196.303 42.4624 196.303 42.4624 196.303 42.4624L196.307 42.4706L196.307 42.4707L196.311 42.479L196.315 42.487C196.315 42.4871 196.315 42.4871 196.315 42.4871C197.832 45.4747 199.903 47.8402 202.537 49.5338L202.537 49.5339L202.543 49.5372L202.553 49.544C205.189 51.1909 208.111 52.012 211.285 52.012C214.005 52.012 216.456 51.4579 218.588 50.2964ZM217.641 48.5348L217.637 48.5371C215.845 49.5144 213.733 50.012 211.285 50.012C208.475 50.012 205.923 49.2907 203.616 47.8497C201.311 46.3671 199.471 44.2846 198.1 41.5857C196.775 38.8495 196.105 35.6849 196.105 32.08C196.105 28.4743 196.775 25.3319 198.1 22.6396C199.471 19.94 201.31 17.8797 203.613 16.44C205.92 14.9986 208.494 14.276 211.348 14.276C213.797 14.276 215.909 14.7736 217.701 15.7509L217.701 15.751L217.705 15.7532C219.022 16.4556 220.111 17.3087 220.979 18.3092C221.332 18.7161 221.649 19.1484 221.931 19.606L222.857 21.1105V19.344V14.788H232.801V49.5H222.857V44.944V43.2375L221.936 44.6742C221.65 45.1203 221.331 45.5423 220.981 45.9403C220.085 46.9582 218.974 47.8239 217.641 48.5348ZM208.613 38.9467L208.613 38.9469L208.622 38.9567C210.251 40.6308 212.236 41.476 214.548 41.476C216.861 41.476 218.826 40.6311 220.413 38.9542C222.059 37.2612 222.857 34.9706 222.857 32.144C222.857 29.3174 222.059 27.0268 220.413 25.3338C218.826 23.6569 216.861 22.812 214.548 22.812C212.236 22.812 210.251 23.6572 208.622 25.3313L208.622 25.3315C207.015 26.9845 206.24 29.2565 206.24 32.08C206.24 34.9048 207.015 37.2124 208.613 38.9467ZM218.963 37.5771L218.963 37.5772C217.753 38.8559 216.313 39.476 214.548 39.476C212.79 39.476 211.324 38.8591 210.07 37.577C208.898 36.2959 208.24 34.5187 208.24 32.08C208.24 29.6281 208.904 27.9107 210.056 26.7258C211.313 25.4335 212.783 24.812 214.548 24.812C216.313 24.812 217.753 25.4321 218.963 26.7108L218.963 26.7109L218.968 26.7159L218.977 26.726L218.977 26.726C220.179 27.9612 220.857 29.7055 220.857 32.144C220.857 34.5825 220.179 36.3268 218.977 37.5619L218.977 37.5618L218.973 37.5669L218.963 37.5771Z" stroke="white"/>
<path d="M184.452 22.876H183.952V23.376V37.712C183.952 38.8443 184.223 39.7798 184.883 40.3846C185.534 40.9814 186.544 41.22 187.781 41.22H191.185V49.5H186.117C182.227 49.5 179.266 48.5599 177.166 46.7439C175.099 44.9142 174.008 41.9042 174.008 37.584V23.376V22.876H173.508H169.656V14.788H173.508H174.008V14.288V6.084H183.952V14.288V14.788H184.452H191.12V22.876H184.452ZM175.843 48.2435L175.843 48.2436L175.847 48.2472L175.855 48.2542C178.429 50.4822 181.916 51.5 186.117 51.5H192.685H193.185V51V39.72V39.22H192.685H187.781C186.713 39.22 186.329 38.9973 186.234 38.9103C186.165 38.8465 185.952 38.58 185.952 37.712V24.876H192.62H193.12V24.376V13.288V12.788H192.62H185.952V4.584V4.084H185.452H172.508H172.008V4.584V12.788H168.156H167.656V13.288V24.376V24.876H168.156H172.008V37.584C172.008 42.1978 173.172 45.8813 175.843 48.2435Z" stroke="white"/>
<path d="M162.639 43.3327L162.639 43.3326L162.635 43.3389C161.41 45.3399 159.608 46.9438 157.206 48.1448C154.814 49.3406 151.971 49.948 148.661 49.948C145.43 49.948 142.552 49.4236 140.019 48.3853C137.494 47.3505 135.479 45.8258 133.958 43.8132C132.66 42.0449 131.898 39.9511 131.682 37.5158C131.669 37.3652 131.657 37.2133 131.648 37.06H142.333C142.566 38.6056 143.166 39.8574 144.164 40.7692L144.164 40.7694L144.173 40.7773C145.264 41.7258 146.669 42.18 148.342 42.18C150.033 42.18 151.434 41.8016 152.487 40.9876L152.487 40.9878L152.498 40.979C153.564 40.1066 154.09 38.9132 154.09 37.456C154.09 36.2193 153.656 35.1697 152.786 34.3454C152.01 33.5704 151.038 32.9418 149.884 32.4529C148.789 31.9716 147.232 31.432 145.223 30.8335C142.336 29.9421 139.996 29.0551 138.193 28.1747C136.434 27.3157 134.915 26.0459 133.636 24.3544C132.396 22.7139 131.753 20.5463 131.753 17.808C131.753 13.7651 133.209 10.6537 136.104 8.41127L136.104 8.41129L136.107 8.40858C139.027 6.10529 142.856 4.932 147.637 4.932C152.507 4.932 156.377 6.10643 159.296 8.40858L159.296 8.4086L159.299 8.41127C161.97 10.48 163.503 13.3044 163.894 16.9256C163.91 17.0731 163.924 17.2219 163.936 17.372H153.085C152.912 16.0219 152.341 14.9171 151.353 14.0986C150.265 13.155 148.885 12.7 147.253 12.7C145.839 12.7 144.646 13.0896 143.726 13.9104C142.779 14.7108 142.337 15.8685 142.337 17.296C142.337 18.9424 143.131 20.2275 144.63 21.1179C146.044 21.9574 148.219 22.8454 151.128 23.7867C154.017 24.7637 156.339 25.6936 158.102 26.5752L158.106 26.5773C159.868 27.4378 161.388 28.6885 162.666 30.3383C163.906 31.9377 164.546 34.0192 164.546 36.624C164.546 39.0928 163.909 41.3249 162.639 43.3327ZM151.387 35.7748L151.392 35.7799L151.397 35.7849L151.408 35.7945C151.408 35.7946 151.408 35.7946 151.408 35.7947C151.859 36.2212 152.09 36.7364 152.09 37.456C152.09 38.3664 151.793 38.9645 151.248 39.4178C150.653 39.8703 149.738 40.18 148.342 40.18C147.053 40.18 146.151 39.8407 145.499 39.2799C144.862 38.6914 144.408 37.7928 144.266 36.407L144.174 35.509L144.128 35.06H143.676H130.096H129.581L129.596 35.5745L129.626 36.6035L130.126 36.589L129.626 36.6035C129.719 39.8093 130.609 42.6316 132.349 45.0002L132.349 45.0002L132.352 45.0053L132.36 45.0158L132.36 45.0159C134.113 47.3372 136.428 49.075 139.261 50.236C142.072 51.388 145.213 51.948 148.661 51.948C152.215 51.948 155.377 51.2954 158.1 49.9336C160.789 48.5892 162.89 46.7482 164.335 44.393C165.811 42.056 166.546 39.4539 166.546 36.624C166.546 33.6866 165.819 31.1417 164.247 29.1131C162.794 27.2379 161.041 25.7861 158.991 24.7836C157.115 23.8462 154.7 22.8833 151.766 21.891L151.766 21.891L151.76 21.889L151.747 21.8849L151.747 21.8848C148.874 20.9552 146.869 20.1214 145.651 19.3982C145.156 19.104 144.834 18.7895 144.634 18.4571C144.435 18.1275 144.337 17.7494 144.337 17.296C144.337 16.2975 144.629 15.7647 145.02 15.4354L145.02 15.4353L145.031 15.4256L145.037 15.4208L145.042 15.4159L145.054 15.4059L145.054 15.4059C145.533 14.9769 146.217 14.7 147.253 14.7C148.497 14.7 149.385 15.0375 150.045 15.6119L150.045 15.612L150.055 15.6203L150.055 15.6204L150.064 15.6283L150.074 15.6364L150.074 15.6364C150.688 16.1433 151.067 16.861 151.132 17.9601L151.187 18.9014L151.215 19.372H151.687H165.521H166.047L166.021 18.8468L165.968 17.7963C165.735 13.1892 163.94 9.47866 160.53 6.83458C157.169 4.18619 152.825 2.932 147.637 2.932C142.528 2.932 138.229 4.18962 134.873 6.8346C131.444 9.49367 129.753 13.2141 129.753 17.808C129.753 20.8571 130.472 23.485 132.041 25.5607L132.44 25.2591L132.041 25.5607C133.495 27.4837 135.253 28.9649 137.315 29.9719C139.244 30.9139 141.692 31.8362 144.635 32.7453L144.64 32.7467L144.649 32.7496L144.649 32.7496C146.634 33.3407 148.1 33.8531 149.081 34.285L149.081 34.285L149.088 34.2879L149.088 34.2879L149.095 34.2907L149.101 34.2934C149.101 34.2935 149.101 34.2935 149.101 34.2935C150.063 34.7004 150.81 35.1975 151.377 35.7647L151.387 35.7748Z" stroke="white"/>
<path d="M112.412 1.64V1.14H111.912H98.968H98.468V1.64V51V51.5H98.968H111.912H112.412V51V1.64ZM110.412 3.14V49.5H100.468V3.14H110.412Z" stroke="white"/>
<path d="M93.537 1.64V1.14H93.037H80.093H79.593V1.64V51V51.5H80.093H93.037H93.537V51V1.64ZM91.537 3.14V49.5H81.593V3.14H91.537Z" stroke="white"/>
<path d="M62.788 45.136V43.5548L61.8789 44.8485C61.5895 45.2603 61.2712 45.651 60.9237 46.0205C60.0003 47.0027 58.8673 47.8401 57.5183 48.5299C55.7175 49.4298 53.7052 49.884 51.472 49.884C48.8179 49.884 46.4961 49.3045 44.4914 48.1598C42.4901 46.9745 40.9343 45.2786 39.8232 43.0564C38.7124 40.8349 38.148 38.2051 38.148 35.152V14.788H48.028V33.68C48.028 36.1546 48.6701 38.1478 50.0189 39.5896C51.3656 41.0292 53.1703 41.732 55.376 41.732C57.6209 41.732 59.4484 41.0313 60.7971 39.5896C62.1459 38.1478 62.788 36.1546 62.788 33.68V14.788H72.732V49.5H62.788V45.136ZM60.788 51V51.5H61.288H74.232H74.732V51V13.288V12.788H74.232H61.288H60.788V13.288V33.68C60.788 35.8132 60.2399 37.2577 59.3366 38.2233C58.4333 39.1889 57.1742 39.732 55.376 39.732C53.6306 39.732 52.3887 39.1952 51.4794 38.2233C50.5761 37.2577 50.028 35.8132 50.028 33.68V13.288V12.788H49.528H36.648H36.148V13.288V35.152C36.148 38.4514 36.7586 41.3994 38.0344 43.9508C39.3071 46.4964 41.1219 48.4896 43.476 49.8829L43.4826 49.8867L43.4825 49.8868L43.4892 49.8906L43.4958 49.8944C45.8421 51.2351 48.5159 51.884 51.472 51.884C53.9857 51.884 56.3095 51.3703 58.4148 50.3177L58.4188 50.3157L58.4267 50.3116C59.2797 49.8757 60.0679 49.3817 60.788 48.8286V51Z" stroke="white"/>
<path d="M13.912 31.324H13.412V31.824V49.5H3.468V5.572H31.716V13.34H13.912H13.412V13.84V23.312V23.812H13.912H27.108V31.324H13.912ZM33.216 15.34H33.716V14.84V4.072V3.572H33.216H1.968H1.468V4.072V51V51.5H1.968H14.912H15.412V51V33.324H28.608H29.108V32.824V22.312V21.812H28.608H15.412V15.34H33.216Z" stroke="white"/>
</svg>
